<?xml version="1.0" standalone="no"?>
<!DOCTYPE svg PUBLIC "-//W3C//DTD SVG 20010904//EN"
 "http://www.w3.org/TR/2001/REC-SVG-20010904/DTD/svg10.dtd">
<svg version="1.0" xmlns="http://www.w3.org/2000/svg"
 width="224.000000pt" height="178.000000pt" viewBox="0 0 224.000000 178.000000"
 preserveAspectRatio="xMidYMid meet">

<g transform="translate(0.000000,178.000000) scale(0.100000,-0.100000)"
fill="#000000" stroke="none">
<path d="M1604 1756 c-18 -8 -35 -19 -38 -25 -4 -6 -26 -8 -54 -5 -54 6 -374
-31 -404 -47 -40 -21 -58 -69 -58 -153 l0 -78 -40 48 c-84 102 -200 181 -305
209 -126 32 -441 11 -597 -41 -65 -21 -91 -60 -84 -124 2 -25 34 -189 70 -365
65 -313 126 -608 187 -909 38 -189 48 -212 96 -232 90 -38 365 27 498 117 22
15 60 48 84 73 l45 45 15 -46 c29 -84 42 -88 269 -87 126 0 204 4 217 11 16
10 24 8 42 -8 38 -37 84 -33 316 24 228 57 249 67 273 124 20 47 9 72 -165
366 -90 153 -150 264 -147 273 3 8 33 52 66 97 304 413 330 452 330 498 0 66
-35 93 -170 133 -421 123 -406 120 -446 102z m214 -122 c334 -98 322 -94 322
-116 0 -11 -93 -148 -207 -305 -113 -157 -206 -291 -206 -297 0 -6 77 -141
172 -300 94 -160 171 -292 171 -295 -1 -22 -40 -37 -218 -81 -112 -27 -213
-50 -226 -50 -20 0 -30 15 -71 113 -26 61 -52 116 -56 122 -5 5 -9 -38 -9 -98
0 -102 -1 -107 -22 -112 -13 -3 -99 -4 -193 -3 l-170 3 2 215 2 215 -24 -67
c-72 -206 -184 -340 -342 -411 -120 -54 -316 -86 -339 -56 -6 8 -30 108 -53
224 -45 221 -92 452 -190 929 -32 159 -57 295 -54 302 6 16 13 18 133 44 126
27 305 36 395 21 178 -31 348 -185 442 -401 18 -41 33 -84 34 -95 5 -57 17
132 18 281 1 125 4 174 14 182 7 6 75 18 152 27 77 9 156 18 176 21 23 4 39 2
44 -6 4 -6 7 -63 6 -126 -1 -63 0 -114 3 -114 2 0 19 44 37 98 46 138 66 182
84 182 8 0 86 -21 173 -46z"/>
<path d="M1661 1578 c-4 -13 -29 -84 -55 -158 -116 -333 -107 -310 -133 -310
-13 0 -26 7 -30 15 -3 9 -1 111 4 228 5 117 8 214 6 216 -1 2 -58 -2 -127 -9
l-124 -13 -7 -236 c-3 -130 -10 -369 -15 -531 -6 -162 -10 -341 -10 -397 l0
-103 130 0 c71 0 129 3 129 8 -1 4 -1 83 0 175 1 145 3 168 17 174 9 3 23 2
31 -3 8 -5 48 -90 90 -189 42 -99 77 -181 78 -183 5 -6 335 81 331 87 -10 17
-221 379 -270 460 -31 52 -56 103 -56 112 0 15 60 101 311 446 49 66 89 123
89 126 0 3 -10 7 -22 9 -13 3 -94 26 -180 52 -87 25 -162 46 -168 46 -6 0 -14
-10 -19 -22z"/>
<path d="M365 1564 c-11 -2 -58 -12 -104 -21 l-83 -16 5 -31 c3 -17 40 -197
82 -401 42 -203 89 -435 106 -515 16 -80 42 -205 57 -279 l27 -133 56 6 c85 8
208 51 277 95 206 134 322 479 267 795 -35 201 -172 392 -335 470 -62 29 -72
31 -200 33 -74 1 -144 0 -155 -3z m328 -383 c41 -16 97 -71 125 -125 24 -46
26 -62 27 -156 0 -98 -2 -109 -30 -160 -38 -69 -102 -111 -179 -118 -31 -2
-56 0 -60 6 -11 18 -104 505 -99 519 12 31 162 54 216 34z"/>
<path d="M562 1111 c-11 -7 -7 -44 23 -197 20 -104 38 -197 41 -206 13 -43 97
3 132 72 17 34 22 61 22 120 0 90 -20 141 -74 188 -30 26 -45 32 -84 32 -26 0
-53 -4 -60 -9z m93 -77 c20 -8 50 -67 58 -114 8 -42 -6 -110 -25 -121 -10 -7
-18 17 -35 104 -29 149 -29 143 2 131z"/>
</g>
</svg>
